<?xml version="1.0" encoding="utf-8"?>
<!-- Generator: Adobe Illustrator 27.8.1, SVG Export Plug-In . SVG Version: 6.00 Build 0)  -->
<svg version="1.1" id="Layer_1" xmlns="http://www.w3.org/2000/svg" xmlns:xlink="http://www.w3.org/1999/xlink" x="0px" y="0px"
	 viewBox="0 0 1500 284.86" style="enable-background:new 0 0 1500 284.86;" xml:space="preserve">
<g>
	<g>
		<path d="M736.05,196.98c-3.59,0-6.87-0.9-9.85-2.69c-2.98-1.79-5.36-4.18-7.16-7.16c-1.79-2.98-2.69-6.26-2.69-9.85v-7.8h18.7
			v6.94c0,0.48,0.16,0.88,0.5,1.21c0.33,0.33,0.73,0.5,1.2,0.5h61.08c0.47,0,0.87-0.16,1.21-0.5c0.33-0.33,0.5-0.73,0.5-1.21v-19.41
			c0-0.47-0.17-0.85-0.5-1.14c-0.33-0.28-0.73-0.43-1.21-0.43h-61.78c-3.59,0-6.87-0.89-9.85-2.69c-2.98-1.79-5.36-4.18-7.16-7.16
			c-1.79-2.98-2.69-6.3-2.69-9.99v-20.98c0-3.59,0.89-6.87,2.69-9.85c1.8-2.98,4.18-5.36,7.16-7.16c2.98-1.79,6.26-2.69,9.85-2.69
			h62.63c3.59,0,6.87,0.9,9.85,2.69c2.98,1.8,5.36,4.18,7.16,7.16c1.79,2.98,2.69,6.26,2.69,9.85v7.8h-18.84v-6.94
			c0-0.47-0.17-0.87-0.5-1.21c-0.33-0.33-0.73-0.5-1.21-0.5h-61.08c-0.47,0-0.87,0.17-1.2,0.5c-0.33,0.33-0.5,0.73-0.5,1.21v19.41
			c0,0.47,0.16,0.85,0.5,1.13c0.33,0.28,0.73,0.43,1.2,0.43h61.92c3.59,0,6.87,0.9,9.85,2.69c2.98,1.79,5.36,4.18,7.16,7.16
			s2.69,6.31,2.69,9.99v20.97c0,3.59-0.9,6.87-2.69,9.85s-4.18,5.36-7.16,7.16c-2.98,1.79-6.26,2.69-9.85,2.69H736.05z"/>
		<path d="M843.16,194.29c-2.93-1.79-5.29-4.16-7.09-7.09c-1.79-2.92-2.69-6.19-2.69-9.77V89.57h18.56v25.22h32.02v18.56h-32.02
			v43.36c0,0.47,0.16,0.87,0.5,1.21c0.33,0.33,0.73,0.5,1.21,0.5h30.32v18.56h-31.03C849.35,196.98,846.09,196.08,843.16,194.29z"/>
		<path d="M904.94,194.29c-2.93-1.79-5.29-4.16-7.09-7.09c-1.79-2.92-2.69-6.19-2.69-9.77v-43.08c0-3.59,0.9-6.84,2.69-9.77
			c1.79-2.93,4.16-5.29,7.09-7.09s6.19-2.69,9.78-2.69h44.35c3.59,0,6.87,0.9,9.85,2.69s5.34,4.16,7.09,7.09
			c1.75,2.93,2.62,6.19,2.62,9.77v43.08c0,3.59-0.88,6.85-2.62,9.77c-1.75,2.93-4.09,5.29-7.02,7.09c-2.93,1.79-6.23,2.69-9.92,2.69
			h-44.35C911.13,196.98,907.87,196.08,904.94,194.29z M915.43,178.42h42.93c0.47,0,0.88-0.17,1.21-0.5c0.33-0.33,0.5-0.73,0.5-1.21
			v-41.66c0-0.47-0.17-0.87-0.5-1.21c-0.33-0.33-0.73-0.5-1.21-0.5h-42.93c-0.47,0-0.88,0.17-1.21,0.5c-0.33,0.33-0.5,0.73-0.5,1.21
			v41.66c0,0.47,0.16,0.87,0.5,1.21C914.55,178.26,914.96,178.42,915.43,178.42z"/>
		<path d="M990.25,196.98v-62.63c0-3.59,0.89-6.84,2.69-9.77c1.79-2.93,4.18-5.29,7.16-7.09s6.21-2.69,9.7-2.69h45.63v18.56h-44.92
			c-0.47,0-0.87,0.17-1.21,0.5c-0.33,0.33-0.5,0.73-0.5,1.21v61.92H990.25z"/>
		<path d="M1074.83,194.29c-2.93-1.79-5.29-4.16-7.09-7.09c-1.79-2.92-2.69-6.19-2.69-9.77v-43.08c0-3.59,0.9-6.84,2.69-9.77
			s4.16-5.29,7.09-7.09s6.19-2.69,9.78-2.69h44.35c3.59,0,6.87,0.9,9.85,2.69s5.34,4.16,7.09,7.09s2.62,6.19,2.62,9.77v30.89h-64.9
			v11.48c0,0.47,0.16,0.87,0.5,1.21c0.33,0.33,0.73,0.5,1.21,0.5h63.2v18.56h-63.91C1081.02,196.98,1077.76,196.08,1074.83,194.29z
			 M1083.62,148.52h46.33v-13.46c0-0.47-0.17-0.87-0.5-1.21c-0.33-0.33-0.73-0.5-1.2-0.5h-42.93c-0.47,0-0.88,0.17-1.21,0.5
			c-0.33,0.33-0.5,0.73-0.5,1.21V148.52z"/>
		<path d="M1163.53,196.98v-18.56h18.57v18.56H1163.53z"/>
		<path d="M1195.42,106.58V87.87h18.56v18.71H1195.42z M1195.42,196.98V114.8h18.56v82.18H1195.42z"/>
		<path d="M1236.5,194.29c-2.93-1.79-5.29-4.16-7.09-7.09c-1.79-2.92-2.69-6.19-2.69-9.77v-43.08c0-3.59,0.9-6.84,2.69-9.77
			c1.79-2.93,4.16-5.29,7.09-7.09c2.93-1.79,6.19-2.69,9.78-2.69h44.35c3.59,0,6.87,0.9,9.85,2.69s5.34,4.16,7.09,7.09
			c1.75,2.93,2.62,6.19,2.62,9.77v43.08c0,3.59-0.88,6.85-2.62,9.77c-1.75,2.93-4.09,5.29-7.02,7.09c-2.93,1.79-6.23,2.69-9.92,2.69
			h-44.35C1242.69,196.98,1239.43,196.08,1236.5,194.29z M1246.99,178.42h42.93c0.47,0,0.88-0.17,1.21-0.5
			c0.33-0.33,0.5-0.73,0.5-1.21v-41.66c0-0.47-0.17-0.87-0.5-1.21c-0.33-0.33-0.73-0.5-1.21-0.5h-42.93c-0.47,0-0.88,0.17-1.21,0.5
			c-0.33,0.33-0.5,0.73-0.5,1.21v41.66c0,0.47,0.16,0.87,0.5,1.21C1246.11,178.26,1246.52,178.42,1246.99,178.42z"/>
	</g>
	<g>
		<path d="M189.81,106.58V87.87h18.56v18.71H189.81z M189.81,196.98V114.8h18.56v82.18H189.81z"/>
		<path d="M333.63,196.98V87.87h18.57v26.93h45.34c3.59,0,6.85,0.9,9.78,2.69c2.92,1.79,5.29,4.16,7.08,7.09
			c1.79,2.93,2.69,6.19,2.69,9.77v62.63h-18.56v-61.92c0-0.47-0.17-0.87-0.5-1.21c-0.33-0.33-0.73-0.5-1.21-0.5h-42.94
			c-0.47,0-0.87,0.17-1.2,0.5c-0.33,0.33-0.5,0.73-0.5,1.21v61.92H333.63z"/>
		<path d="M437.63,194.29c-2.93-1.79-5.29-4.16-7.09-7.09c-1.79-2.92-2.69-6.19-2.69-9.77v-43.08c0-3.59,0.9-6.84,2.69-9.77
			s4.16-5.29,7.09-7.09s6.19-2.69,9.78-2.69h44.35c3.59,0,6.87,0.9,9.85,2.69s5.34,4.16,7.09,7.09s2.62,6.19,2.62,9.77v43.08
			c0,3.59-0.88,6.85-2.62,9.77c-1.75,2.93-4.09,5.29-7.02,7.09c-2.93,1.79-6.23,2.69-9.92,2.69h-44.35
			C443.82,196.98,440.56,196.08,437.63,194.29z M448.12,178.42h42.93c0.47,0,0.88-0.17,1.21-0.5c0.33-0.33,0.5-0.73,0.5-1.21v-41.66
			c0-0.47-0.17-0.87-0.5-1.21c-0.33-0.33-0.73-0.5-1.21-0.5h-42.93c-0.47,0-0.88,0.17-1.21,0.5c-0.33,0.33-0.5,0.73-0.5,1.21v41.66
			c0,0.47,0.16,0.87,0.5,1.21C447.24,178.26,447.65,178.42,448.12,178.42z"/>
		<path d="M627.79,194.29c-2.93-1.79-5.29-4.16-7.09-7.09c-1.79-2.92-2.69-6.19-2.69-9.77v-43.08c0-3.59,0.9-6.84,2.69-9.77
			c1.79-2.93,4.16-5.29,7.09-7.09s6.19-2.69,9.78-2.69h44.35c3.59,0,6.87,0.9,9.85,2.69c2.98,1.79,5.34,4.16,7.09,7.09
			c1.75,2.93,2.62,6.19,2.62,9.77v30.89h-64.9v11.48c0,0.47,0.16,0.87,0.5,1.21c0.33,0.33,0.73,0.5,1.21,0.5h63.2v18.56h-63.91
			C633.98,196.98,630.72,196.08,627.79,194.29z M636.58,148.52h46.33v-13.46c0-0.47-0.17-0.87-0.5-1.21
			c-0.33-0.33-0.73-0.5-1.21-0.5h-42.93c-0.47,0-0.88,0.17-1.21,0.5c-0.33,0.33-0.5,0.73-0.5,1.21V148.52z"/>
		<path d="M321.16,104.95c-1.79-2.98-4.2-5.36-7.22-7.16c-3.03-1.79-6.33-2.69-9.92-2.69h-82.18v29.33h18.7v-8.93
			c0-0.47,0.17-0.87,0.5-1.21c0.33-0.33,0.73-0.5,1.21-0.5h60.93c0.47,0,0.89,0.17,1.27,0.5c0.37,0.33,0.57,0.73,0.57,1.21v26.07
			c0,0.47-0.19,0.85-0.57,1.13c-0.38,0.29-0.8,0.43-1.27,0.43h-81.34v53.85h18.7v-34.86l63.48-0.14c3.59,0,6.9-0.88,9.92-2.62
			c3.02-1.75,5.43-4.13,7.22-7.16c1.79-3.02,2.69-6.32,2.69-9.92V114.8C323.85,111.21,322.95,107.93,321.16,104.95z"/>
		<g>
			<rect x="522.79" y="151.92" width="18.57" height="45.06"/>
			<path d="M603.63,124.58c-1.75-2.93-4.11-5.29-7.09-7.09c-2.98-1.79-6.26-2.69-9.85-2.69h-63.91v18.56h63.2
				c0.47,0,0.87,0.17,1.21,0.5c0.33,0.33,0.5,0.73,0.5,1.21v61.92h18.56v-62.63C606.25,130.76,605.38,127.51,603.63,124.58z"/>
		</g>
	</g>
</g>
</svg>
